<?xml version="1.0" standalone="no"?>
<!DOCTYPE svg PUBLIC "-//W3C//DTD SVG 20010904//EN"
 "http://www.w3.org/TR/2001/REC-SVG-20010904/DTD/svg10.dtd">
<svg version="1.0" xmlns="http://www.w3.org/2000/svg"
 width="63.3000000pt" height="60.0000000pt" viewBox="0 0 63.3000000 60.0000000"
 preserveAspectRatio="xMidYMid meet">

<g transform="translate(0.000000,600.000000) scale(0.100000,-0.100000)"
fill="#000000" stroke="none">
<path d="M0 3000 l0 -3000 3165 0 3165 0 0 3000 0 3000 -3165 0 -3165 0 0
-3000z m3300 2550 c17 -17 20 -33 20 -125 0 -140 -21 -181 -74 -142 -40 29
-43 230 -4 269 23 23 33 23 58 -2z m-581 -324 c65 -66 72 -76 69 -107 -3 -29
-7 -34 -31 -37 -23 -3 -41 9 -103 69 -84 82 -99 113 -66 140 12 9 30 15 40 12
11 -2 52 -37 91 -77z m1232 74 c12 -7 19 -21 19 -39 0 -21 -18 -45 -80 -105
-66 -64 -84 -77 -107 -74 -24 3 -28 8 -31 39 -3 32 3 44 52 97 31 32 70 67 88
75 40 20 35 19 59 7z m-1905 -165 c174 -123 511 -354 548 -375 l44 -25 81 28
c48 16 102 27 134 27 41 0 71 9 133 39 210 101 373 148 474 136 71 -9 152 -40
266 -102 126 -69 166 -83 232 -83 80 1 121 22 285 152 299 238 299 238 341
238 30 0 44 -36 27 -69 -6 -11 -71 -66 -144 -123 -72 -56 -175 -135 -227 -176
-147 -116 -231 -146 -341 -123 -30 7 -129 48 -221 92 -235 113 -257 115 -470
39 -195 -70 -204 -77 -340 -285 -64 -99 -117 -185 -118 -191 0 -19 62 -39 120
-39 82 0 125 27 187 116 129 185 172 222 234 200 30 -10 534 -336 847 -548 84
-56 161 -103 170 -103 10 0 38 20 62 46 80 81 183 134 231 119 16 -5 19 -14
17 -38 -3 -27 -14 -39 -83 -84 -44 -29 -92 -66 -107 -83 -26 -28 -28 -36 -28
-117 0 -151 -51 -214 -189 -235 l-71 -10 -11 -44 c-27 -105 -104 -163 -216
-164 l-62 0 -11 -42 c-29 -110 -106 -165 -213 -155 -34 4 -74 9 -88 13 -24 5
-28 2 -44 -39 -20 -53 -67 -104 -112 -123 -46 -20 -121 -17 -171 6 -71 32
-753 488 -806 539 -64 61 -88 101 -125 206 -52 146 -108 202 -251 250 -76 25
-110 52 -110 86 0 20 28 39 59 39 11 0 68 -21 126 -46 167 -73 221 -134 279
-310 17 -52 39 -96 63 -123 38 -45 721 -508 801 -543 76 -34 136 -8 151 64 15
74 -10 106 -161 199 -90 56 -148 107 -148 130 0 23 38 47 66 41 28 -5 196
-114 306 -199 72 -55 148 -93 186 -93 66 0 115 80 88 145 -16 37 -63 73 -239
180 -90 55 -132 86 -139 104 -13 34 1 55 38 59 23 2 70 -23 214 -114 214 -136
283 -174 317 -174 32 0 80 26 93 49 16 30 12 93 -8 123 -9 16 -100 82 -202
148 -228 149 -253 169 -248 207 2 22 9 29 30 31 35 4 33 5 303 -171 259 -170
289 -184 339 -163 45 19 66 52 66 104 0 67 30 44 -642 482 -354 231 -352 229
-385 236 -31 6 -33 4 -96 -92 -36 -55 -80 -113 -98 -131 -107 -102 -306 -108
-401 -13 -23 23 -38 47 -38 61 1 37 36 107 94 184 51 69 106 155 106 168 0 12
-36 7 -95 -13 -62 -21 -129 -26 -168 -11 -36 14 -619 419 -639 445 -21 25 -23
47 -6 64 21 21 65 13 114 -23z m1615 -2532 c8 -19 9 -131 4 -359 -4 -183 -4
-350 0 -373 l7 -41 49 0 c59 0 64 -16 19 -54 -42 -35 -96 -49 -129 -33 -49 23
-54 60 -52 430 1 314 0 338 -16 343 -62 19 -66 23 -51 47 18 27 94 66 131 67
21 0 30 -6 38 -27z m1242 -5 c32 -18 45 -33 57 -66 13 -38 13 -46 0 -70 -18
-32 -75 -72 -103 -72 -17 0 -19 4 -12 48 11 69 8 95 -16 115 -30 24 -71 21
-97 -6 -24 -26 -42 -103 -42 -183 l0 -54 75 0 75 0 0 -30 c0 -38 -23 -50 -94
-50 l-55 0 2 -277 c2 -244 0 -284 -16 -329 -53 -154 -245 -194 -313 -66 l-22
41 -12 -28 c-16 -39 -67 -87 -114 -106 -49 -21 -150 -22 -197 -2 -112 47 -129
205 -28 259 31 17 89 25 89 13 0 -3 -11 -27 -25 -53 -14 -26 -25 -54 -25 -63
0 -36 24 -80 51 -94 62 -33 127 -6 156 64 17 41 31 251 17 251 -5 0 -25 -10
-44 -23 -58 -39 -96 -50 -155 -45 -66 6 -100 28 -129 84 -18 33 -22 63 -26
204 l-5 164 -32 10 c-51 14 -39 43 34 80 47 24 80 20 99 -10 15 -22 16 -44 11
-162 -6 -154 3 -225 34 -258 59 -63 172 -24 210 71 7 17 11 75 11 138 -1 88
-5 117 -22 151 -34 71 -30 76 50 76 l70 0 0 -331 0 -330 29 20 c30 21 91 29
91 11 0 -5 -8 -25 -17 -45 -16 -33 -16 -37 0 -71 15 -31 21 -35 49 -32 42 4
66 40 69 103 1 28 2 170 1 317 l-2 267 -46 7 c-38 5 -45 10 -42 27 2 15 14 25
38 32 54 15 60 23 60 70 0 73 35 166 78 208 21 21 52 42 68 47 43 14 120 4
167 -22z m-3443 -53 c11 -13 9 -24 -11 -63 -21 -42 -24 -60 -24 -162 0 -63 3
-116 8 -117 4 -2 84 -3 177 -3 l170 0 -1 113 c-1 140 -6 158 -47 177 -31 15
-50 45 -37 58 9 10 169 15 210 8 39 -8 46 -30 20 -69 -24 -38 -35 -151 -35
-392 0 -249 4 -270 53 -293 30 -14 36 -46 11 -56 -22 -9 -237 -7 -251 2 -6 4
-13 16 -15 26 -2 14 6 22 30 30 18 6 37 18 42 26 5 8 10 77 10 153 l0 137
-175 0 -175 0 0 -138 c0 -147 4 -162 50 -185 40 -20 37 -43 -7 -51 -58 -9
-199 -7 -227 4 -35 13 -33 35 5 50 61 26 59 15 59 334 0 326 -4 351 -53 364
-34 9 -48 39 -25 53 7 5 61 9 119 9 84 0 109 -3 119 -15z m780 -5 c44 -44 17
-130 -42 -130 -27 0 -68 44 -68 74 0 26 50 76 76 76 8 0 23 -9 34 -20z m2820
-160 l0 -69 67 -3 c54 -2 68 -6 71 -20 6 -32 -34 -58 -87 -58 l-49 0 -7 -87
c-8 -87 -1 -276 11 -306 9 -24 32 -28 64 -12 40 21 50 19 50 -9 0 -46 -91 -94
-154 -82 -68 13 -71 22 -74 271 l-3 223 -45 5 c-25 2 -48 7 -51 10 -13 13 9
38 51 58 42 21 86 77 86 111 0 21 21 38 47 38 22 0 23 -4 23 -70z m-2822 -72
c9 -9 12 -72 12 -224 0 -116 3 -225 6 -242 6 -31 7 -31 50 -25 45 6 50 1 38
-32 -8 -20 -76 -55 -108 -55 -78 0 -89 30 -95 280 l-6 205 -33 3 c-51 5 -40
40 23 74 54 30 94 35 113 16z m579 -8 c73 -44 62 -158 -19 -189 -21 -7 -44
-11 -52 -8 -14 5 -13 12 2 52 16 45 16 47 -2 61 -27 19 -34 18 -66 -14 -38
-38 -60 -116 -67 -232 -4 -81 -2 -103 16 -148 12 -29 21 -57 21 -63 0 -6 -39
-9 -102 -7 -97 3 -103 4 -106 25 -2 16 3 22 19 25 33 4 40 51 37 242 l-3 160
-32 8 c-51 13 -44 42 17 73 66 33 107 33 120 -1 6 -14 10 -46 10 -72 l0 -47
24 50 c46 97 112 128 183 85z m464 5 c106 -38 142 -129 92 -229 -35 -69 -104
-106 -197 -106 -71 0 -110 16 -114 48 -3 21 0 22 73 22 71 0 79 2 105 29 34
34 45 68 36 116 -16 83 -143 100 -196 25 -51 -72 -64 -252 -24 -321 50 -85
167 -105 258 -44 48 33 76 33 76 1 0 -45 -91 -99 -188 -112 -85 -11 -148 10
-209 71 -64 65 -88 133 -81 234 10 135 85 237 198 272 43 13 125 10 171 -6z
m999 -1020 c238 -23 602 -78 711 -106 39 -10 57 -33 36 -46 -31 -20 -283 9
-532 61 -145 30 -494 56 -775 56 -434 1 -808 -41 -1363 -151 -452 -90 -695
-151 -831 -211 -73 -32 -116 -32 -116 1 0 13 20 27 68 49 105 48 133 57 357
116 600 157 949 213 1570 250 138 8 729 -4 875 -19z m-2692 -486 c2 -9 -8 -20
-23 -27 -20 -9 -24 -9 -19 -1 10 16 -52 4 -83 -17 -34 -21 -20 -34 38 -34 63
0 62 -19 -2 -37 -48 -14 -93 -48 -84 -64 11 -17 59 -9 103 16 43 24 43 24 40
3 -7 -50 -136 -92 -168 -53 -23 27 -2 67 50 93 28 14 37 22 24 22 -11 0 -28 6
-39 13 -30 23 -12 65 38 88 50 23 120 22 125 -2z m1022 2 c0 -5 -25 -41 -55
-80 -59 -77 -63 -88 -13 -41 17 17 34 30 38 30 18 0 18 -15 -1 -42 -34 -47
-11 -47 29 0 20 23 43 42 50 42 18 0 15 -14 -8 -35 -20 -18 -27 -45 -12 -45
17 0 51 31 46 43 -9 24 19 45 54 40 36 -6 40 -18 16 -44 -9 -10 -14 -23 -12
-30 4 -13 10 -8 49 44 11 15 27 27 35 27 20 0 17 -14 -6 -35 -22 -20 -27 -45
-9 -45 7 0 26 16 45 35 40 42 64 47 38 8 -17 -27 -16 -27 20 5 55 48 78 38 36
-15 -11 -15 -19 -28 -17 -30 9 -8 33 9 42 30 12 26 80 65 92 53 4 -5 -1 -13
-11 -20 -38 -23 -71 -55 -63 -62 4 -4 25 10 47 31 43 42 61 41 41 -1 -10 -23
-10 -26 4 -20 9 3 -10 -23 -41 -59 -32 -36 -61 -65 -66 -65 -17 0 -7 20 32 65
47 54 50 62 14 38 -20 -13 -30 -14 -44 -6 -14 9 -22 7 -38 -10 -27 -27 -50
-12 -33 21 18 35 12 35 -16 2 -24 -29 -28 -30 -39 -16 -10 14 -13 15 -24 1
-14 -17 -47 -20 -52 -4 -2 7 -12 7 -31 -2 -35 -16 -44 -6 -30 31 15 39 4 38
-37 -5 -36 -37 -64 -45 -74 -20 -5 14 -8 14 -30 -1 -33 -21 -48 -11 -36 24
l10 27 -24 -27 c-14 -16 -30 -28 -36 -28 -21 0 -9 58 21 101 55 78 99 117 99
90z m-945 -38 c-3 -16 -19 -45 -36 -65 -28 -36 -38 -68 -20 -68 5 0 28 20 52
45 41 43 71 56 84 35 6 -10 -18 -37 -51 -56 -10 -7 -16 -15 -12 -19 13 -14 47
7 68 41 12 18 28 34 36 34 19 0 18 -13 -6 -43 -22 -28 -25 -37 -10 -37 5 0 21
18 35 40 28 44 52 54 40 18 -4 -13 -7 -31 -8 -40 -1 -10 -9 -18 -18 -18 -9 0
-22 -7 -29 -15 -16 -19 -36 -19 -44 1 -5 14 -8 14 -28 0 -28 -20 -57 -20 -64
-1 -5 13 -8 13 -27 0 -31 -21 -46 -19 -53 9 -8 34 10 84 47 129 36 44 54 48
44 10z m1935 15 c0 -7 -14 -35 -30 -63 -38 -65 -40 -111 -2 -73 24 24 21 0 -2
-25 -32 -34 -46 -34 -46 0 l0 26 -26 -24 c-24 -22 -27 -22 -37 -8 -10 16 -13
15 -39 -4 -34 -26 -46 -16 -30 26 l11 32 -28 -32 c-32 -39 -41 -41 -41 -11 0
21 -1 21 -28 -5 -35 -34 -42 -34 -42 -1 l0 26 -19 -23 c-16 -20 -21 -21 -35
-10 -9 7 -16 21 -16 30 0 32 78 88 106 77 13 -5 13 -10 0 -41 -20 -47 1 -48
43 -3 17 18 33 29 37 25 4 -4 0 -15 -9 -25 -32 -35 -17 -33 18 3 20 19 40 35
45 35 16 0 12 -32 -7 -52 -9 -10 -13 -21 -10 -25 4 -3 24 12 45 35 26 28 47
42 64 42 19 0 29 9 43 40 18 39 35 53 35 28z m-1515 -32 c-4 -32 -13 -46 -29
-46 -14 0 -43 -57 -33 -66 9 -9 42 17 60 47 9 16 23 29 32 29 20 0 19 -12 -5
-43 -24 -30 -25 -37 -5 -37 8 0 27 16 42 35 35 43 65 49 37 8 -17 -27 -16 -27
20 5 55 48 78 38 36 -15 -11 -15 -19 -28 -17 -30 9 -8 33 9 42 30 11 25 80 65
92 54 4 -5 -1 -13 -12 -19 -29 -17 -68 -58 -61 -65 4 -4 24 11 46 32 43 42 61
41 41 -1 -10 -23 -10 -26 4 -20 9 3 -10 -23 -41 -59 -32 -36 -61 -65 -66 -65
-17 0 -7 20 32 65 47 54 50 62 14 38 -20 -13 -30 -14 -44 -6 -14 9 -22 7 -38
-10 -29 -28 -50 -11 -32 24 11 22 10 21 -18 -5 -27 -25 -32 -27 -38 -12 -6 16
-8 16 -25 0 -21 -19 -49 -12 -49 11 0 14 -4 13 -26 -4 -34 -27 -54 -27 -54 0
0 20 -1 20 -31 -5 -34 -29 -53 -26 -43 7 6 22 6 22 -19 -2 -28 -25 -42 -23
-50 9 -10 37 89 108 114 83 5 -5 2 -21 -6 -37 -18 -35 -18 -36 -2 -36 7 0 26
14 42 30 24 25 26 30 10 30 -17 0 -17 1 0 20 10 11 24 20 30 20 7 0 18 7 25
15 18 22 28 18 25 -9z m2261 -3 c-2 -16 -4 -31 -5 -35 0 -5 -8 -8 -16 -8 -14
0 -51 -57 -42 -66 9 -10 37 9 62 42 14 19 33 34 41 34 20 0 17 -10 -13 -42
-14 -15 -24 -30 -21 -33 2 -3 26 16 51 42 52 53 70 52 37 -2 -12 -20 -20 -38
-18 -41 9 -9 37 8 43 26 7 22 33 45 42 37 3 -4 -2 -19 -12 -34 -14 -23 -10
-21 24 12 31 30 44 36 53 27 9 -9 8 -16 -4 -29 -23 -28 -30 -43 -19 -43 6 0
22 18 36 40 14 22 32 40 40 40 21 0 19 -24 -5 -45 -14 -13 -17 -22 -10 -29 7
-7 21 1 45 24 24 23 31 36 23 41 -14 9 7 39 27 39 7 0 18 7 25 15 19 23 31 18
26 -10 -6 -33 -14 -45 -30 -45 -14 0 -43 -57 -33 -66 9 -9 42 17 60 47 16 30
47 40 47 16 0 -8 -9 -22 -20 -32 -14 -13 -17 -22 -10 -29 7 -7 24 4 54 37 25
28 51 47 64 47 34 0 26 -28 -14 -52 -23 -14 -32 -24 -25 -31 12 -12 71 23 106
65 21 25 28 29 36 17 12 -20 11 -53 -3 -67 -18 -18 -27 -15 -21 8 6 23 -9 26
-26 6 -18 -21 21 -41 49 -26 29 15 25 -5 -5 -24 -32 -21 -51 -20 -68 4 l-14
20 -18 -20 c-20 -22 -45 -26 -62 -9 -8 8 -17 8 -33 -1 -26 -14 -50 -7 -50 15
0 14 -4 13 -26 -4 -34 -26 -54 -27 -54 -1 l0 20 -20 -20 c-24 -24 -48 -26 -57
-4 -5 13 -9 12 -29 -7 -19 -18 -27 -20 -36 -11 -10 10 -10 17 0 32 22 36 12
36 -18 0 -24 -30 -30 -32 -35 -18 -7 17 -9 16 -33 -3 -22 -17 -28 -18 -37 -6
-8 11 -14 12 -28 3 -15 -9 -21 -7 -32 8 -14 18 -16 18 -33 3 -23 -21 -41 -22
-48 -2 -5 12 -9 12 -30 -2 -34 -22 -53 -5 -36 32 14 30 2 33 -23 5 -20 -22
-71 -50 -91 -50 -7 0 -15 9 -19 20 -6 19 -7 19 -35 -1 -20 -15 -36 -20 -55
-15 -23 6 -28 2 -40 -28 -17 -40 -35 -55 -35 -29 0 19 14 48 45 98 19 28 17
28 -24 -8 -37 -33 -48 -38 -75 -33 -31 6 -34 4 -51 -36 -15 -37 -19 -40 -22
-20 -3 13 9 46 27 80 27 49 28 53 8 31 -34 -36 -83 -63 -102 -56 -39 15 1 107
46 107 19 0 34 -40 23 -62 -3 -7 17 13 47 45 60 65 97 79 52 20 -27 -35 -27
-36 -4 -20 27 19 50 22 50 8 0 -5 -12 -23 -26 -40 -47 -57 -1 -33 58 30 58 60
100 79 58 26 -12 -15 -19 -31 -16 -36 3 -5 -1 -15 -10 -22 -14 -12 -14 -14 3
-20 31 -13 38 -10 81 32 51 48 77 49 77 1 0 -35 19 -39 21 -4 2 34 20 49 54
44 34 -5 37 -13 14 -48 -18 -27 -12 -43 9 -26 8 7 17 10 20 7 4 -3 5 -2 2 2
-3 3 3 15 12 26 13 15 15 21 6 24 -19 7 3 43 26 43 11 0 21 7 25 15 9 25 25
17 22 -12z m-2193 11 c9 -10 -4 -34 -19 -34 -8 0 -14 6 -14 13 0 22 19 35 33
21z m537 -8 c0 -16 -18 -31 -27 -22 -8 8 5 36 17 36 5 0 10 -6 10 -14z m170 0
c0 -16 -18 -31 -27 -22 -8 8 5 36 17 36 5 0 10 -6 10 -14z m1810 0 c0 -18 -16
-29 -30 -21 -13 8 -1 35 16 35 8 0 14 -6 14 -14z m160 0 c0 -18 -16 -29 -30
-21 -13 8 -1 35 16 35 8 0 14 -6 14 -14z m-790 -46 c0 -16 -31 -60 -42 -60 -5
0 -4 9 2 20 8 15 8 20 -1 20 -8 0 -8 4 1 15 14 17 40 20 40 5z"/>
<path d="M1625 728 l-16 -33 20 25 c20 24 26 40 16 40 -2 0 -12 -15 -20 -32z"/>
<path d="M1700 690 c-8 -5 -12 -12 -9 -15 4 -3 12 1 19 10 14 17 11 19 -10 5z"/>
<path d="M3233 666 c-15 -13 -24 -28 -20 -32 4 -4 22 6 40 24 37 37 21 43 -20
8z"/>
<path d="M3498 674 c-16 -8 -28 -21 -28 -30 0 -11 7 -10 30 8 17 12 30 25 30
30 0 10 0 10 -32 -8z"/>
<path d="M1898 674 c-16 -8 -28 -21 -28 -30 0 -17 28 -6 50 21 18 22 10 26
-22 9z"/>
<path d="M4860 685 c-7 -8 -8 -15 -2 -15 5 0 15 7 22 15 7 8 8 15 2 15 -5 0
-15 -7 -22 -15z"/>
<path d="M3718 669 c-20 -11 -25 -53 -6 -47 9 3 33 59 25 58 -1 0 -10 -5 -19
-11z"/>
<path d="M3845 660 c-10 -11 -14 -20 -8 -20 5 0 18 9 28 20 10 11 14 20 8 20
-5 0 -18 -9 -28 -20z"/>
<path d="M4087 662 c-19 -21 -22 -42 -7 -42 10 0 34 49 27 56 -2 2 -11 -4 -20
-14z"/>
</g>
</svg>
